<svg width="30" height="30" viewBox="0 0 30 30" fill="none" xmlns="http://www.w3.org/2000/svg">
<path d="M15.0083 6.28802C15.0583 5.02842 15.4717 3.17453 16.917 1.95669C18.259 0.825143 19.8927 0.273984 20.9096 0.0220659C20.9991 -0.00134679 21.0942 -0.00621607 21.1865 0.00787801C21.2788 0.0219721 21.3656 0.0546063 21.4394 0.102965C21.5133 0.151324 21.5719 0.213956 21.6103 0.285457C21.6487 0.356957 21.6656 0.43518 21.6597 0.513377C21.593 1.71869 21.213 3.51691 20.2327 4.48005C19.3092 5.38751 17.8255 6.59004 15.6501 6.79324C15.5667 6.80077 15.4824 6.79312 15.4029 6.77083C15.3235 6.74854 15.2507 6.71213 15.1897 6.66411C15.1287 6.61609 15.0809 6.55761 15.0496 6.49268C15.0183 6.42775 15.0042 6.35793 15.0083 6.28802Z" fill="#C1FFFF"/>
<path d="M18.7325 29.3281C19.7777 29.6621 20.8329 29.9989 21.7881 29.9989C23.8336 29.9989 29.7865 26.0601 29.9999 21.9709C30.0018 21.8679 29.9692 21.7664 29.9059 21.6779C29.8426 21.5894 29.7511 21.5174 29.6415 21.4699C28.1278 20.7628 25.654 19.0008 25.569 16.4385C25.4689 13.4516 27.2643 11.08 28.623 10.0987C28.9297 9.87744 29.0347 9.48773 28.7613 9.23999C27.5244 8.11262 25.0372 6.56075 22.7667 6.59833C21.1163 6.62616 19.6276 7.14113 18.349 7.58095C17.3705 7.91916 16.5153 8.21422 15.8051 8.21422C15.1333 8.21422 14.3265 7.92194 13.3996 7.58373C12.1527 7.13 10.689 6.59833 9.04866 6.59833C6.00799 6.59972 0 8.70414 0 16.8296C0 21.1386 5.32617 30.113 9.82216 29.9989C10.7924 29.9989 11.8293 29.6649 12.8595 29.3308C13.873 29.0024 14.8783 28.6767 15.8051 28.6767C16.7003 28.6767 17.7106 29.001 18.7325 29.3281Z" fill="#C1FFFF"/>
</svg>
