<svg width="35" height="35" viewBox="0 0 35 35" fill="none" xmlns="http://www.w3.org/2000/svg">
<path d="M18 32C26.2843 32 33 25.2843 33 17C33 8.71573 26.2843 2 18 2C9.71573 2 3 8.71573 3 17C3 25.2843 9.71573 32 18 32Z" stroke="#C1FFFF" stroke-width="4.16667" stroke-linecap="round" stroke-linejoin="round"/>
<path d="M19.7267 19C22.83 19 25 17.1419 25 14.471C25 11.8 22.83 10 19.7267 10H13.7708C13.5292 10 13.3333 10.1679 13.3333 10.375V16.8323H11.4375C11.1959 16.8323 11 17.0002 11 17.2072V18.625C11 18.8321 11.1959 19 11.4375 19H13.3333V20H11.4375C11.1959 20 11 20.1679 11 20.375V21.625C11 21.8321 11.1959 22 11.4375 22H13.3333V23.625C13.3333 23.8321 13.5292 24 13.7708 24H15.9058C16.1474 24 16.3433 23.8321 16.3433 23.625V22H22.2292C22.4708 22 22.6667 21.8321 22.6667 21.625V20.375C22.6667 20.1679 22.4708 20 22.2292 20H16.3433V19H19.7267ZM16.3433 12.1484H19.2133C20.9167 12.1484 21.9433 13.0581 21.9433 14.471C21.9433 15.9032 20.9167 16.8323 19.1667 16.8323H16.3433V12.1484Z" fill="#C1FFFF"/>
</svg>
